# xmcd CD database file
#
# Track frame offsets:
#	182
#	28057
#	56822
#	85480
#	118565
#	145705
#
# Disc length: 2348 seconds
#
# Revision: 0
# Processed by: cddbd v1.5.1PL2 Copyright (c) Steve Scherf et al.
# Submitted via: CDex 1.51
#
DISCID=4f092a06
DTITLE=Linda Leida - Linda Leida
DYEAR=1900
DGENRE=Salsa
TTITLE0=Cucho - cheche - Malo
TTITLE1=Cabio Sile Yeyeo
TTITLE2=Tumba
TTITLE3=Jovenes Del Muelle
TTITLE4=Cana De Azucar
TTITLE5=Oye ya
EXTD=
EXTT0=
EXTT1=
EXTT2=
EXTT3=
EXTT4=
EXTT5=
PLAYORDER=
